<svg xmlns="http://www.w3.org/2000/svg" viewBox="0 0 1200 630" width="1200" height="630">
  <defs>
    <linearGradient id="bg" x1="0" y1="0" x2="0" y2="1">
      <stop offset="0%" stop-color="#f5f3ed"/>
      <stop offset="100%" stop-color="#e0dcd0"/>
    </linearGradient>
  </defs>

  <!-- Background -->
  <rect width="1200" height="630" fill="url(#bg)" rx="20"/>

  <!-- Title -->
  <text x="600" y="65" text-anchor="middle" fill="#2a1a0a" font-size="36" font-weight="800" font-family="sans-serif">📍 포천시 선단동 · 대학원 연구동 + 기숙사동</text>
  <text x="600" y="100" text-anchor="middle" fill="#6a5a4a" font-size="20" font-family="sans-serif">200명 수용 · 적벽돌 외관 · 연구동 B1+6F · 기숙사동 B1+7F (1인실 200실)</text>

  <!-- Research Building -->
  <text x="280" y="150" text-anchor="middle" fill="#8B4020" font-size="22" font-weight="800" font-family="sans-serif">🔬 연구동</text>

  <!-- Roof -->
  <rect x="80" y="165" width="400" height="8" rx="2" fill="#606060"/>

  <!-- 6F -->
  <rect x="84" y="175" width="392" height="52" rx="3" fill="#fafaf8" stroke="#7c3aed" stroke-width="1.5"/>
  <rect x="84" y="175" width="10" height="52" fill="#A86850" rx="1"/>
  <rect x="466" y="175" width="10" height="52" fill="#A86850" rx="1"/>
  <text x="280" y="205" text-anchor="middle" fill="#7c3aed" font-size="14" font-weight="700" font-family="sans-serif">6F 연구실 D — 50명 · 휴게실</text>

  <!-- 5F -->
  <rect x="84" y="229" width="392" height="52" rx="3" fill="#fafaf8" stroke="#0891b2" stroke-width="1.5"/>
  <rect x="84" y="229" width="10" height="52" fill="#A86850" rx="1"/>
  <rect x="466" y="229" width="10" height="52" fill="#A86850" rx="1"/>
  <text x="280" y="259" text-anchor="middle" fill="#0891b2" font-size="14" font-weight="700" font-family="sans-serif">5F 연구실 C — 50명 · 교수실</text>

  <!-- 4F -->
  <rect x="84" y="283" width="392" height="52" rx="3" fill="#fafaf8" stroke="#65a30d" stroke-width="1.5"/>
  <rect x="84" y="283" width="10" height="52" fill="#A86850" rx="1"/>
  <rect x="466" y="283" width="10" height="52" fill="#A86850" rx="1"/>
  <text x="280" y="313" text-anchor="middle" fill="#65a30d" font-size="14" font-weight="700" font-family="sans-serif">4F 연구실 B — 50명 · 소회의실</text>

  <!-- 3F -->
  <rect x="84" y="337" width="392" height="52" rx="3" fill="#fafaf8" stroke="#d97706" stroke-width="1.5"/>
  <rect x="84" y="337" width="10" height="52" fill="#A86850" rx="1"/>
  <rect x="466" y="337" width="10" height="52" fill="#A86850" rx="1"/>
  <text x="280" y="367" text-anchor="middle" fill="#d97706" font-size="14" font-weight="700" font-family="sans-serif">3F 연구실 A — 50명 · 소회의실</text>

  <!-- 2F -->
  <rect x="84" y="391" width="392" height="52" rx="3" fill="#fafaf8" stroke="#ea580c" stroke-width="1.5"/>
  <rect x="84" y="391" width="10" height="52" fill="#A86850" rx="1"/>
  <rect x="466" y="391" width="10" height="52" fill="#A86850" rx="1"/>
  <text x="280" y="421" text-anchor="middle" fill="#ea580c" font-size="14" font-weight="700" font-family="sans-serif">2F 세미나실 (80석) · 소회의실</text>

  <!-- 1F -->
  <rect x="84" y="445" width="392" height="52" rx="3" fill="#fafaf8" stroke="#dc2626" stroke-width="1.5"/>
  <rect x="84" y="445" width="10" height="52" fill="#A86850" rx="1"/>
  <rect x="466" y="445" width="10" height="52" fill="#A86850" rx="1"/>
  <text x="280" y="475" text-anchor="middle" fill="#dc2626" font-size="14" font-weight="700" font-family="sans-serif">1F 로비 · 행정실 · 편의시설</text>

  <!-- B1 -->
  <rect x="84" y="499" width="392" height="45" rx="3" fill="#f3f4f6" stroke="#6b7280" stroke-width="1"/>
  <text x="280" y="526" text-anchor="middle" fill="#6b7280" font-size="13" font-weight="600" font-family="sans-serif">B1 주차장 (40대) · 기계실</text>

  <!-- Ground -->
  <rect x="60" y="546" width="440" height="8" fill="#8A9A6A" rx="2"/>

  <!-- Connecting path -->
  <rect x="490" y="530" width="60" height="12" fill="#B0A890" rx="2"/>
  <text x="520" y="540" text-anchor="middle" fill="#7a7060" font-size="9" font-family="sans-serif">연결통로</text>

  <!-- Dorm Building -->
  <text x="820" y="150" text-anchor="middle" fill="#5030A0" font-size="22" font-weight="800" font-family="sans-serif">🛏️ 기숙사동</text>

  <!-- Roof -->
  <rect x="620" y="165" width="400" height="8" rx="2" fill="#606060"/>

  <!-- 7F -->
  <rect x="624" y="175" width="392" height="46" rx="3" fill="#fafaf8" stroke="#14b8a6" stroke-width="1.5"/>
  <rect x="624" y="175" width="10" height="46" fill="#A86850" rx="1"/>
  <rect x="1006" y="175" width="10" height="46" fill="#A86850" rx="1"/>
  <text x="820" y="202" text-anchor="middle" fill="#14b8a6" font-size="13" font-weight="700" font-family="sans-serif">7F 1인실 ×30 · 휴게실</text>

  <!-- 6F -->
  <rect x="624" y="223" width="392" height="46" rx="3" fill="#fafaf8" stroke="#0ea5e9" stroke-width="1.5"/>
  <rect x="624" y="223" width="10" height="46" fill="#A86850" rx="1"/>
  <rect x="1006" y="223" width="10" height="46" fill="#A86850" rx="1"/>
  <text x="820" y="250" text-anchor="middle" fill="#0ea5e9" font-size="13" font-weight="700" font-family="sans-serif">6F 1인실 ×34</text>

  <!-- 5F -->
  <rect x="624" y="271" width="392" height="46" rx="3" fill="#fafaf8" stroke="#3b82f6" stroke-width="1.5"/>
  <rect x="624" y="271" width="10" height="46" fill="#A86850" rx="1"/>
  <rect x="1006" y="271" width="10" height="46" fill="#A86850" rx="1"/>
  <text x="820" y="298" text-anchor="middle" fill="#3b82f6" font-size="13" font-weight="700" font-family="sans-serif">5F 1인실 ×34</text>

  <!-- 4F -->
  <rect x="624" y="319" width="392" height="46" rx="3" fill="#fafaf8" stroke="#6366f1" stroke-width="1.5"/>
  <rect x="624" y="319" width="10" height="46" fill="#A86850" rx="1"/>
  <rect x="1006" y="319" width="10" height="46" fill="#A86850" rx="1"/>
  <text x="820" y="346" text-anchor="middle" fill="#6366f1" font-size="13" font-weight="700" font-family="sans-serif">4F 1인실 ×34</text>

  <!-- 3F -->
  <rect x="624" y="367" width="392" height="46" rx="3" fill="#fafaf8" stroke="#7c3aed" stroke-width="1.5"/>
  <rect x="624" y="367" width="10" height="46" fill="#A86850" rx="1"/>
  <rect x="1006" y="367" width="10" height="46" fill="#A86850" rx="1"/>
  <text x="820" y="394" text-anchor="middle" fill="#7c3aed" font-size="13" font-weight="700" font-family="sans-serif">3F 1인실 ×34</text>

  <!-- 2F -->
  <rect x="624" y="415" width="392" height="46" rx="3" fill="#fafaf8" stroke="#9333ea" stroke-width="1.5"/>
  <rect x="624" y="415" width="10" height="46" fill="#A86850" rx="1"/>
  <rect x="1006" y="415" width="10" height="46" fill="#A86850" rx="1"/>
  <text x="820" y="442" text-anchor="middle" fill="#9333ea" font-size="13" font-weight="700" font-family="sans-serif">2F 1인실 ×34</text>

  <!-- 1F -->
  <rect x="624" y="463" width="392" height="46" rx="3" fill="#fafaf8" stroke="#be123c" stroke-width="1.5"/>
  <rect x="624" y="463" width="10" height="46" fill="#A86850" rx="1"/>
  <rect x="1006" y="463" width="10" height="46" fill="#A86850" rx="1"/>
  <text x="820" y="490" text-anchor="middle" fill="#be123c" font-size="13" font-weight="700" font-family="sans-serif">1F 로비 · 세탁실 · 택배함</text>

  <!-- B1 -->
  <rect x="624" y="511" width="392" height="35" rx="3" fill="#f3f4f6" stroke="#6b7280" stroke-width="1"/>
  <text x="820" y="533" text-anchor="middle" fill="#6b7280" font-size="13" font-weight="600" font-family="sans-serif">B1 주차장 (30대) · 창고</text>

  <!-- Ground -->
  <rect x="600" y="546" width="440" height="8" fill="#8A9A6A" rx="2"/>

  <!-- Bottom stats -->
  <rect x="100" y="575" width="150" height="35" rx="8" fill="white" stroke="#e8e4dc" stroke-width="1"/>
  <text x="175" y="597" text-anchor="middle" fill="#2a1a0a" font-size="13" font-weight="700" font-family="sans-serif">🔬 연구 200명</text>

  <rect x="280" y="575" width="150" height="35" rx="8" fill="white" stroke="#e8e4dc" stroke-width="1"/>
  <text x="355" y="597" text-anchor="middle" fill="#2a1a0a" font-size="13" font-weight="700" font-family="sans-serif">🛏️ 기숙 200실</text>

  <rect x="460" y="575" width="150" height="35" rx="8" fill="white" stroke="#e8e4dc" stroke-width="1"/>
  <text x="535" y="597" text-anchor="middle" fill="#2a1a0a" font-size="13" font-weight="700" font-family="sans-serif">🅿️ 주차 70대</text>

  <rect x="640" y="575" width="170" height="35" rx="8" fill="white" stroke="#e8e4dc" stroke-width="1"/>
  <text x="725" y="597" text-anchor="middle" fill="#2a1a0a" font-size="13" font-weight="700" font-family="sans-serif">📐 연면적 ~7,500㎡</text>

  <rect x="840" y="575" width="170" height="35" rx="8" fill="white" stroke="#e8e4dc" stroke-width="1"/>
  <text x="925" y="597" text-anchor="middle" fill="#2a1a0a" font-size="13" font-weight="700" font-family="sans-serif">💰 예상 120~200억</text>
</svg>
